<?xml version="1.0" encoding="UTF-8"?>
<svg xmlns="http://www.w3.org/2000/svg" id="a" data-name="icons" width="65px" height="65px" viewBox="0 0 65 65">
  <path d="M31.5,35c3.03,0,5.5-2.47,5.5-5.5v-2c0-3.03-2.47-5.5-5.5-5.5s-5.5,2.47-5.5,5.5v2c0,3.03,2.47,5.5,5.5,5.5ZM28,27.5c0-1.93,1.57-3.5,3.5-3.5s3.5,1.57,3.5,3.5v2c0,1.93-1.57,3.5-3.5,3.5s-3.5-1.57-3.5-3.5v-2Z" stroke-width="0"/>
  <path d="M63,3H1c-.55,0-1,.45-1,1v4c0,.55.45,1,1,1h19v26.5c-.64,0-1.28.24-1.77.73-.47.47-.73,1.1-.73,1.77s.26,1.3.73,1.77l1.77,1.77v6.46h-2v2h8v4c0,1.65,1.35,3,3,3,.77,0,1.47-.3,2-.78.53.48,1.23.78,2,.78,1.65,0,3-1.35,3-3v-4h8v-2h-2v-6.46l1.77-1.77c.47-.47.73-1.1.73-1.77s-.26-1.3-.73-1.77c-.47-.47-1.12-.71-1.77-.71V9h21c.55,0,1-.45,1-1v-4c0-.55-.45-1-1-1ZM19.5,38c0-.08.02-.23.15-.35s.28-.15.35-.15.23.02.35.15l3.17,3.17c.32.33.83.39,1.22.15l1.25-.75v1.17l-1.74,1.05c-.19.12-.45.08-.61-.08l-4-4c-.13-.13-.15-.28-.15-.35ZM35,43.5c0,.68-.2,1.33-.56,1.89-.43-.24-.92-.39-1.44-.39-.77,0-1.47.3-2,.78-.53-.48-1.23-.78-2-.78-.21,0-.42.02-.63.07-.24-.48-.37-1.02-.37-1.57v-3.54c0-1.08.88-1.96,1.96-1.96h3.07c1.08,0,1.96.88,1.96,1.96v3.54ZM22,48v-4.46l.23.23c.47.47,1.1.73,1.77.73.45,0,.9-.12,1.29-.36l.73-.44c.03.85.26,1.67.66,2.42-.42.52-.68,1.16-.68,1.88h-4ZM29,55c-.55,0-1-.45-1-1v-6c0-.55.45-1,1-1s1,.45,1,1v6c0,.55-.45,1-1,1ZM34,54c0,.55-.45,1-1,1s-1-.45-1-1v-6c0-.55.45-1,1-1s1,.45,1,1v6ZM40,48h-4c0-.38-.08-.75-.21-1.09.62-.78,1.01-1.69,1.14-2.67.34.16.69.26,1.07.26.67,0,1.3-.26,1.77-.73l.23-.23v4.46ZM42.5,38c0,.08-.02.23-.15.35l-4,4c-.16.16-.42.19-.61.08l-.74-.45v-1.17l.25.15c.39.24.9.17,1.22-.15l3.17-3.17c.2-.19.51-.19.71,0,.13.13.15.28.15.35ZM40,36.46l-2.39,2.39-.87-.52s-.09-.03-.13-.05c-.63-1.34-1.99-2.28-3.58-2.28h-3.07c-1.18,0-2.23.53-2.96,1.36-.1.02-.2.05-.3.11l-2.32,1.39-2.39-2.39V9h18v27.46ZM62,7H2v-2h60v2Z" stroke-width="0"/>
  <circle cx="53.77" cy="17.07" r="1.03" stroke-width="0"/>
  <circle cx="49.77" cy="29.07" r="1.03" stroke-width="0"/>
  <path d="M5.46,21.04c.2.2.45.29.71.29s.51-.1.71-.29l1.13-1.13,1.13,1.13c.2.2.45.29.71.29s.51-.1.71-.29c.39-.39.39-1.02,0-1.41l-1.13-1.13,1.13-1.13c.39-.39.39-1.02,0-1.41s-1.02-.39-1.41,0l-1.13,1.13-1.13-1.13c-.39-.39-1.02-.39-1.41,0s-.39,1.02,0,1.41l1.13,1.13-1.13,1.13c-.39.39-.39,1.02,0,1.41Z" stroke-width="0"/>
  <path d="M58.45,53.09l1.41-1.41c.39-.39.39-1.02,0-1.41s-1.02-.39-1.41,0l-1.41,1.41c-.39.39-.39,1.02,0,1.41.2.2.45.29.71.29s.51-.1.71-.29Z" stroke-width="0"/>
  <path d="M54.38,54.32l-5.13,5.13c-.39.39-.39,1.02,0,1.41.2.2.45.29.71.29s.51-.1.71-.29l5.13-5.13c.39-.39.39-1.02,0-1.41s-1.02-.39-1.41,0Z" stroke-width="0"/>
  <path d="M47.84,58.04c.2.2.45.29.71.29s.51-.1.71-.29l6.94-6.94c.39-.39.39-1.02,0-1.41s-1.02-.39-1.41,0l-6.94,6.94c-.39.39-.39,1.02,0,1.41Z" stroke-width="0"/>
  <path d="M12.45,38.09l1.41-1.41c.39-.39.39-1.02,0-1.41s-1.02-.39-1.41,0l-1.41,1.41c-.39.39-.39,1.02,0,1.41.2.2.45.29.71.29s.51-.1.71-.29Z" stroke-width="0"/>
  <path d="M3.26,45.86c.2.2.45.29.71.29s.51-.1.71-.29l5.13-5.13c.39-.39.39-1.02,0-1.41s-1.02-.39-1.41,0l-5.13,5.13c-.39.39-.39,1.02,0,1.41Z" stroke-width="0"/>
  <path d="M13.73,29.73l-7.5,7.5c-.39.39-.39,1.02,0,1.41.2.2.45.29.71.29s.51-.1.71-.29l7.5-7.5c.39-.39.39-1.02,0-1.41s-1.02-.39-1.41,0Z" stroke-width="0"/>
</svg>
