<?xml version="1.0" encoding="UTF-8"?>
<svg xmlns="http://www.w3.org/2000/svg" id="a" data-name="icons" width="65px" height="65px" viewBox="0 0 65 65">
  <circle cx="22" cy="25" r="1" stroke-width="0"/>
  <circle cx="12" cy="25" r="1" stroke-width="0"/>
  <path d="M17,31c2.21,0,4-1.34,4-3h-8c0,1.66,1.79,3,4,3Z" stroke-width="0"/>
  <path d="M2.26,62h15.69c1.13,0,2.05-.92,2.05-2.05v-3.9c0-1.13-.92-2.05-2.05-2.05h-2.9c-1.11,0-2.02.89-2.05,2h-5v-8c0-.55-.45-1-1-1s-1,.45-1,1v9c0,.55.45,1,1,1h4v2H2.26c-.15,0-.26-.12-.26-.26v-12.94c0-1.72,1.41-3.29,3.5-3.9l.62-.18c1.28-.37,2.59-.76,3.88-1.21v2.48c0,.32.15.62.42.81.17.12.38.19.58.19.11,0,.21-.02.32-.05l1.2-.4,3.58,7.87c.16.36.52.59.91.59s.75-.23.91-.59l3.57-7.87,1.2.4c.1.04.21.05.32.05.21,0,.41-.06.58-.19.26-.19.42-.49.42-.81v-2.15c.95.3,1.91.59,2.85.86l.65.19c2.09.61,3.5,2.17,3.5,3.9v13.2c0,.55.45,1,1,1s1-.45,1-1v-13.2c0-1.72,1.41-3.29,3.5-3.9l.64-.18c1.94-.56,3.96-1.14,5.84-1.94.04-.02.09-.04.13-.07l1.4-.86c.3-.18.48-.5.48-.85v-2s.01,0,.02,0h3.96s.01,0,.02,0v1.84c0,.4.24.76.61.92l2.4,1.01c1.89.8,3.9,1.38,5.84,1.94l.64.18c2.09.61,3.5,2.17,3.5,3.9v12.94c0,.15-.12.26-.26.26h-9.74l-6-.05.05-3.95,2.95.05v.95c0,.55.45,1,1,1h8c.55,0,1-.45,1-1v-9c0-.55-.45-1-1-1s-1,.45-1,1v.26c-.95-.79-2.17-1.26-3.5-1.26-2.07,0-3.95,1.18-4.88,3h-1.24c-.93-1.82-2.81-3-4.88-3-1.33,0-2.55.47-3.5,1.26v-.26c0-.55-.45-1-1-1s-1,.45-1,1v12c0,.55.45,1,1,1s1-.45,1-1v-7.5c0-1.93,1.57-3.5,3.5-3.5,1.47,0,2.79.94,3.28,2.33.14.4.52.67.94.67h2.55c.42,0,.8-.27.94-.67.5-1.4,1.82-2.33,3.28-2.33,1.93,0,3.5,1.57,3.5,3.5v3.5h-6c-.03-1.11-.94-2-2.05-2h-2.9c-1.13,0-2.05.92-2.05,2.05v3.9c0,1.13.92,2.05,2.05,2.05h15.69c1.25,0,2.26-1.02,2.26-2.26v-12.94c0-1.99-1.15-3.82-3-4.96v-21.28c0-6.93-5.64-12.57-12.57-12.57h-2.87c-6.93,0-12.57,5.64-12.57,12.57v22.02c-.39.35-.72.73-1,1.14-.86-1.25-2.23-2.25-3.94-2.75l-.65-.19c-1.13-.33-2.28-.67-3.41-1.04v-.75c0-.32-.15-.62-.42-.81-.26-.19-.6-.24-.9-.14l-1.68.56v-1.61h1.5c3.03,0,5.5-2.47,5.5-5.5v-3.05c1.22-.71,2-2.02,2-3.45s-.78-2.75-2-3.45v-6.03c1.86-1.73,3-4.01,3-6.52,0-.55-.45-1-1-1H12.97c-3.84,0-6.97,2.66-6.97,5.92v7.63c-1.22.71-2,2.02-2,3.45s.78,2.75,2,3.45v3.05c0,3.03,2.47,5.5,5.5,5.5h1.5v1.61l-1.68-.56c-.31-.1-.64-.05-.9.14-.26.19-.42.49-.42.81v.41c-1.43.53-2.96.97-4.43,1.4l-.62.18c-2.96.86-4.94,3.19-4.94,5.82v12.94c0,1.25,1.02,2.26,2.26,2.26ZM13,58h1c.55,0,1-.45,1-1l.05-1,2.95.05-.05,3.95h-4.95v-2ZM43,38.44l-.86.53c-1.76.74-3.69,1.29-5.55,1.83l-.64.19c-.33.1-.64.22-.94.35v-13.71c.29.33.63.62,1.01.84.21,4.07,3.13,7.42,6.99,8.31v1.68ZM45.02,35c-3.87,0-7.02-3.15-7.02-7.02v-.17c0-.42-.27-.8-.67-.94-.8-.28-1.33-1.04-1.33-1.87s.54-1.59,1.33-1.87c.4-.14.67-.52.67-.94v-3.83h4.71c1.57,0,3.08-.61,4.29-1.69,1.2,1.09,2.71,1.69,4.29,1.69h1.09c2,0,3.62,1.62,3.62,3.62v.21c0,.42.27.8.67.94.8.28,1.33,1.04,1.33,1.87s-.54,1.59-1.33,1.87c-.4.14-.67.52-.67.94v.17c0,3.87-3.15,7.02-7.02,7.02h-3.96ZM58.41,40.8c-1.89-.54-3.84-1.11-5.62-1.86l-1.79-.76v-1.42c3.85-.89,6.78-4.24,6.99-8.31.39-.22.72-.51,1.01-.84v13.35l-.59-.17ZM45.57,10h2.87c5.83,0,10.57,4.74,10.57,10.57v1.81c-.29-.33-.63-.62-1.02-.84-.22-2.9-2.65-5.19-5.61-5.19h-1.09c-1.34,0-2.59-.63-3.51-1.77-.38-.47-1.18-.47-1.56,0-.92,1.14-2.16,1.77-3.51,1.77h-5.71c-.55,0-1,.48-1,1.03v4.16c-.38.22-.71.51-1,.83v-1.81c0-5.83,4.74-10.57,10.57-10.57ZM17,49.58l-2.58-5.67,2.58-.86,2.58.86-2.58,5.67ZM22,42.61l-3.34-1.11,3.34-1.11v2.22ZM8,31.5v-3.68c0-.42-.27-.8-.67-.94-.8-.28-1.33-1.04-1.33-1.87s.54-1.59,1.33-1.87c.4-.14.67-.52.67-.94v-8.27c0-2.16,2.23-3.92,4.97-3.92h15.95c-.61,3.8-4.65,6.75-9.54,6.75h-4.35c-.55,0-1,.45-1,1s.45,1,1,1h4.35c2.46,0,4.74-.65,6.62-1.75v5.18c0,.42.27.8.67.94.8.28,1.33,1.04,1.33,1.87s-.54,1.59-1.33,1.87c-.4.14-.67.52-.67.94v3.68c0,1.93-1.57,3.5-3.5,3.5h-11c-1.93,0-3.5-1.57-3.5-3.5ZM15,37h4v2.28l-2,.67-2-.67v-2.28ZM12,40.39l3.34,1.11-3.34,1.11v-2.22Z" stroke-width="0"/>
  <circle cx="42" cy="25" r="1" stroke-width="0"/>
  <circle cx="52" cy="25" r="1" stroke-width="0"/>
  <path d="M47,31c2.21,0,4-1.34,4-3h-8c0,1.66,1.79,3,4,3Z" stroke-width="0"/>
</svg>
