<?xml version="1.0" encoding="UTF-8"?>
<svg xmlns="http://www.w3.org/2000/svg" id="a" data-name="icons" width="65px" height="65px" viewBox="0 0 65 65">
  <path d="M63,5H11c-.55,0-1,.45-1,1v12h-1.33c-3.13,0-5.67,2.21-5.67,4.93v12.57c0,3.03,2.47,5.5,5.5,5.5h.5v.92l-1.4.73c-1.16.61-2.39,1.04-3.69,1.51l-.43.15c-2.08.74-3.48,2.73-3.48,4.94v11.49c0,1.25,1.02,2.26,2.27,2.26h11.95c.98,0,1.78-.8,1.78-1.78v-4.44c0-.98-.8-1.78-1.78-1.78h-2.44c-.98,0-1.78.8-1.78,1.78v.22h-4v-6c0-.55-.45-1-1-1s-1,.45-1,1v7c0,.55.45,1,1,1h6c.55,0,1-.45,1-1v-1h2v4H2.27c-.15,0-.27-.12-.27-.26v-11.49c0-1.37.86-2.6,2.15-3.06l.43-.15c1.31-.47,2.66-.95,3.95-1.62l.68-.35c.43,1.13,1.52,1.94,2.8,1.94.96,0,1.8-.46,2.35-1.16,1.01.46,2.05.83,3.07,1.2l.43.15c1.29.46,2.15,1.69,2.15,3.06v11.75c0,.55.45,1,1,1s1-.45,1-1v-11.75c0-2.21-1.4-4.2-3.48-4.94l-.43-.15c-1.08-.39-2.11-.76-3.09-1.22v-1.93h.5c3.03,0,5.5-2.47,5.5-5.5v-1.61c.13.07.28.11.44.11h8.56c.55,0,1-.45,1-1s-.45-1-1-1h-8.56c-.16,0-.31.05-.44.11v-1.13c0-2.2,1.8-3.99,4-3.99,3.31,0,6-2.69,6-6s-2.69-6-6-6c-2.15,0-4.11,1.15-5.18,3h-7.82V7h50v37h-3v-4c0-.55-.45-1-1-1h-12c-.55,0-1,.45-1,1v4h-20c-.55,0-1,.45-1,1s.45,1,1,1h38c.55,0,1-.45,1-1V6c0-.55-.45-1-1-1ZM13,43c0,.55-.45,1-1,1s-1-.45-1-1v-2h2v2ZM19,35.5c0,1.93-1.57,3.5-3.5,3.5h-7c-1.93,0-3.5-1.57-3.5-3.5v-12.57c0-1.62,1.65-2.93,3.67-2.93h12.23c-.58,2.83-3.59,5-7.21,5h-3.4c-.55,0-1,.45-1,1s.45,1,1,1h3.4c1.92,0,3.71-.5,5.19-1.36.07.28.11.57.11.86v9ZM29,21c0,2.21-1.79,4-4,4-1.54,0-2.94.59-4,1.54v-.04c0-.74-.15-1.45-.43-2.12,1.51-1.42,2.43-3.31,2.43-5.38,0-.45-.3-.81-.7-.94.73-.67,1.68-1.06,2.7-1.06,2.21,0,4,1.79,4,4ZM57,44h-2v-3h2v3ZM47,41h2v3h-2v-3ZM51,44v-3h2v3h-2Z" stroke-width="0"/>
  <path d="M51,25c-3.31,0-6,2.69-6,6v2c0,.55.45,1,1,1h10c.55,0,1-.45,1-1s-.45-1-1-1h-9v-1c0-2.21,1.79-4,4-4,3.31,0,6-2.69,6-6s-2.69-6-6-6-6,2.69-6,6c0,.55.45,1,1,1s1-.45,1-1c0-2.21,1.79-4,4-4s4,1.79,4,4-1.79,4-4,4Z" stroke-width="0"/>
  <circle cx="8" cy="32" r="1" stroke-width="0"/>
  <circle cx="16" cy="32" r="1" stroke-width="0"/>
  <path d="M12,36c1.66,0,3-.9,3-2h-6c0,1.1,1.34,2,3,2Z" stroke-width="0"/>
  <path d="M38,20c-.55,0-1,.45-1,1v3h-3c-.55,0-1,.45-1,1s.45,1,1,1h3v3c0,.55.45,1,1,1s1-.45,1-1v-3h3c.55,0,1-.45,1-1s-.45-1-1-1h-3v-3c0-.55-.45-1-1-1Z" stroke-width="0"/>
</svg>
