<?xml version="1.0" encoding="UTF-8"?>
<svg xmlns="http://www.w3.org/2000/svg" id="a" data-name="icons" width="65px" height="65px" viewBox="0 0 65 65">
  <path d="M63,60h-4v-5.58c0-1.38-.82-2.56-2-3.1v-5.48c0-2.12-1.72-3.84-3.84-3.84h-.16v-8c0-.55-.45-1-1-1h-7.09c2.07-2.29,4.9-5.72,4.9-7.24,0-2.23-1.92-4.05-4.28-4.05-.97,0-1.88.3-2.62.86-.74-.55-1.66-.86-2.63-.86-2.36,0-4.28,1.82-4.28,4.05,0,1.52,2.84,4.95,4.9,7.24h-6.9c-.55,0-1,.45-1,1v8h-.16c-2.12,0-3.84,1.72-3.84,3.84v5.48c-1.18.54-2,1.73-2,3.1v6.58c0,.55.45,1,1,1h18.99c.55,0,1-.45,1-1s-.45-1-1-1h-17.99v-3h28v3h-5c-.55,0-1,.45-1,1s.45,1,1,1h11c.55,0,1-.45,1-1s-.45-1-1-1ZM40.28,23.71c.73,0,1.41.31,1.85.86.19.24.48.38.78.38s.59-.14.78-.38c.44-.55,1.11-.86,1.84-.86,1.26,0,2.28.92,2.28,2.04-.09.8-2.49,3.84-4.91,6.48-2.42-2.64-4.82-5.68-4.91-6.47,0-1.13,1.02-2.05,2.28-2.05ZM35,35h16v2h-16v-2ZM35,39h16v3h-16v-3ZM31,45.84c0-1.01.82-1.84,1.84-1.84h20.32c1.01,0,1.84.82,1.84,1.84v.16h-24v-.16ZM31,48h24v3h-24v-3ZM29,55v-.58c0-.78.64-1.42,1.42-1.42h25.16c.78,0,1.42.64,1.42,1.42v.58h-28Z" stroke-width="0"/>
  <path d="M16.07,10.57c.2.2.45.29.71.29s.51-.1.71-.29l.77-.77.77.77c.2.2.45.29.71.29s.51-.1.71-.29c.39-.39.39-1.02,0-1.41l-.77-.77.77-.77c.39-.39.39-1.02,0-1.41s-1.02-.39-1.41,0l-.77.77-.77-.77c-.39-.39-1.02-.39-1.41,0s-.39,1.02,0,1.41l.77.77-.77.77c-.39.39-.39,1.02,0,1.41Z" stroke-width="0"/>
  <path d="M51.07,8.57c.2.2.45.29.71.29s.51-.1.71-.29l.77-.77.77.77c.2.2.45.29.71.29s.51-.1.71-.29c.39-.39.39-1.02,0-1.41l-.77-.77.77-.77c.39-.39.39-1.02,0-1.41s-1.02-.39-1.41,0l-.77.77-.77-.77c-.39-.39-1.02-.39-1.41,0s-.39,1.02,0,1.41l.77.77-.77.77c-.39.39-.39,1.02,0,1.41Z" stroke-width="0"/>
  <path d="M27.71,24.71l.79-.79.79.79c.2.2.45.29.71.29s.51-.1.71-.29c.39-.39.39-1.02,0-1.41l-.79-.79.79-.79c.39-.39.39-1.02,0-1.41s-1.02-.39-1.41,0l-.79.79-.79-.79c-.39-.39-1.02-.39-1.41,0s-.39,1.02,0,1.41l.79.79-.79.79c-.39.39-.39,1.02,0,1.41.2.2.45.29.71.29s.51-.1.71-.29Z" stroke-width="0"/>
  <path d="M18.98,37.88c1.95-2.18,3.02-4.99,3.02-7.92,0-4.94-4.02-8.96-8.96-8.96h-4.08c-4.94,0-8.96,4.02-8.96,8.96v15.04c0,.33.16.64.43.82.17.12.37.18.57.18.12,0,.24-.02.35-.06l5.65-2.13v.77l-.14.08c-1.04.6-2.14,1.04-3.31,1.5l-.38.15c-1.89.75-3.16,2.73-3.16,4.93v9.49c0,1.25,1.02,2.26,2.26,2.26h11.96c.98,0,1.78-.8,1.78-1.78v-3.61c0-.89-.72-1.61-1.61-1.61h-2.77c-.89,0-1.61.72-1.61,1.61v.39h-4v-6c0-.55-.45-1-1-1s-1,.45-1,1v7c0,.55.45,1,1,1h6c.55,0,1-.45,1-1v-1h2v3H2.26c-.15,0-.26-.12-.26-.26v-9.49c0-1.38.76-2.62,1.9-3.07l.38-.15c1.15-.46,2.34-.93,3.48-1.58l1.41,2.11c.19.28.5.45.83.45s.65-.17.83-.45l1.4-2.11c1.14.65,2.33,1.12,3.48,1.58l.38.15c1.14.45,1.9,1.69,1.9,3.07v8.75c0,.55.45,1,1,1s1-.45,1-1v-8.75c0-2.2-1.27-4.18-3.16-4.93l-.38-.15c-1.17-.46-2.27-.9-3.31-1.5l-.14-.08v-1.59c3.19-.11,5.76-2.33,5.98-5.11ZM12.75,41h-3.5c-2.34,0-4.25-1.57-4.25-3.5v-7.5h3c1.09,0,2.14-.36,3-1.02.86.66,1.91,1.02,3,1.02h3v7.5c0,1.93-1.91,3.5-4.25,3.5ZM2,29.96c0-3.84,3.12-6.96,6.96-6.96h4.08c3.84,0,6.96,3.12,6.96,6.96,0,1.52-.35,2.99-1,4.33v-5.29c0-.55-.45-1-1-1h-4c-.86,0-1.66-.37-2.25-1.04-.38-.43-1.12-.43-1.51,0-.58.67-1.38,1.04-2.25,1.04h-4c-.55,0-1,.45-1,1v8.5c0,1.93,1.14,3.62,2.85,4.61l-3.85,1.45v-13.6ZM10,46.2l-1-1.5v-1.71c.08,0,.17.01.25.01h1.75v1.7l-1,1.5Z" stroke-width="0"/>
  <circle cx="7" cy="34" r="1" stroke-width="0"/>
  <circle cx="15" cy="34" r="1" stroke-width="0"/>
  <path d="M11,38c1.66,0,3-.9,3-2h-6c0,1.1,1.34,2,3,2Z" stroke-width="0"/>
</svg>
